<svg id="Capa_1" data-name="Capa 1" xmlns="http://www.w3.org/2000/svg" viewBox="0 0 20.66 20.54"><defs><style>.cls-1{fill:#022869;}</style></defs><title>icono</title><path class="cls-1" d="M18.86,12.57a.75.75,0,0,0-.75.75v4.46A1.26,1.26,0,0,1,16.85,19H2.76A1.26,1.26,0,0,1,1.5,17.78V4.69A1.26,1.26,0,0,1,2.76,3.43H7.22a.75.75,0,1,0,0-1.5H2.76A2.77,2.77,0,0,0,0,4.69V17.78a2.77,2.77,0,0,0,2.76,2.76H16.85a2.77,2.77,0,0,0,2.76-2.76V13.32A.75.75,0,0,0,18.86,12.57Z"/><path class="cls-1" d="M19.93,1.3,19.34.71a2.57,2.57,0,0,0-3.55,0l-9,9a.75.75,0,0,0-.19.33L5.46,14.26a.75.75,0,0,0,.72,1l.2,0L10.64,14a.75.75,0,0,0,.33-.19l9-9A2.52,2.52,0,0,0,19.93,1.3ZM9,12.89l-1.77.49.49-1.78Zm8.41-7.68-7,7-2-2,7-7Zm1.42-1.42-.36.36-2-2,.36-.36a1,1,0,0,1,1.42,0l.59.59A1,1,0,0,1,18.87,3.79Z"/></svg>