<svg id="Capa_1" data-name="Capa 1" xmlns="http://www.w3.org/2000/svg" viewBox="0 0 20.11 20.11"><defs><style>.cls-1{fill:#b20e35;}</style></defs><title>icono-05</title><path class="cls-1" d="M10.05,20.11A10.05,10.05,0,1,1,12,.19a10.06,10.06,0,0,1,6.4,15.45,10.06,10.06,0,0,1-8.36,4.47ZM10.05,2A8.05,8.05,0,0,0,7,17.49,8.05,8.05,0,1,0,13.14,2.61,8,8,0,0,0,10.05,2Z"/><path class="cls-1" d="M10.05,14.93a4.88,4.88,0,1,1,1.87-.37A4.85,4.85,0,0,1,10.05,14.93Zm0-7.75A2.88,2.88,0,0,0,9,12.71a2.88,2.88,0,1,0,2.2-5.32A2.82,2.82,0,0,0,10.05,7.18Z"/></svg>