<?xml version="1.0" encoding="utf-8"?>
<!-- Generator: Adobe Illustrator 21.0.0, SVG Export Plug-In . SVG Version: 6.00 Build 0)  -->
<svg version="1.1" id="Capa_1" xmlns="http://www.w3.org/2000/svg" xmlns:xlink="http://www.w3.org/1999/xlink" x="0px" y="0px"
	 width="57.518px" height="67.682px" viewBox="0 0 57.518 67.682" enable-background="new 0 0 57.518 67.682" xml:space="preserve">
<g>
	<path fill="#FFFFFF" d="M21.546,62.798L1.33,42.582c-1.773-1.773-1.773-4.659,0-6.432c2.365-2.365,6.162-2.633,8.836-0.628
		l10.017,7.298l0-29.193c0-3.195,2.599-5.793,5.791-5.791c3.22,0,5.817,2.601,5.817,5.791l0,7.598
		c0.821-0.448,1.76-0.701,2.759-0.701c2.952-0.002,5.386,2.191,5.765,5.019c0.834-0.465,1.792-0.729,2.811-0.731
		c2.954,0,5.39,2.191,5.765,5.023c0.832-0.472,1.79-0.735,2.811-0.735c3.22,0,5.817,2.601,5.817,5.791l-0.798,16.921
		c-0.197,4.151-1.923,8.055-4.861,10.992c-3.145,3.145-7.328,4.88-11.777,4.878h-6.745C28.883,67.682,24.695,65.948,21.546,62.798z
		 M27.95,11.674c-0.5-0.5-1.19-0.808-1.951-0.81c-1.546,0.002-2.785,1.241-2.785,2.764l0,32.173c0,0.57-0.322,1.093-0.828,1.351
		c-0.51,0.257-1.119,0.21-1.58-0.126L8.364,37.962c-1.492-1.119-3.587-0.971-4.891,0.332c-0.592,0.592-0.592,1.552,0,2.144
		L23.69,60.654c2.577,2.577,6.003,3.996,9.648,3.996h6.745c3.641,0,7.06-1.417,9.633-3.99c2.403-2.403,3.814-5.598,3.977-8.99
		l0.795-16.85c-0.006-1.447-1.239-2.684-2.762-2.689c-0.763,0-1.454,0.287-1.975,0.808c-0.521,0.521-0.808,1.216-0.808,1.953v0.184
		c0,0.836-0.68,1.516-1.516,1.516c-0.821,0.002-1.494-0.654-1.516-1.473l0,0c0,0,0.002-0.002,0-0.004l0,0l-0.002-0.002l0,0l0,0l0,0
		c0,0,0,0,0-0.004l0,0l0,0l0,0l0,0c0,0,0,0,0-0.004l0,0v-0.004c0,0,0.002,0.002,0-0.004l0-4.494c0-1.518-1.241-2.759-2.759-2.759
		c-1.548,0-2.785,1.237-2.785,2.759v4.472c0,0.42-0.169,0.8-0.444,1.074c-0.274,0.274-0.654,0.444-1.072,0.446
		c-0.836,0-1.516-0.68-1.516-1.516l0-8.765c0-1.518-1.241-2.759-2.759-2.759c-1.548,0-2.785,1.237-2.785,2.759v8.76
		c0,0.42-0.169,0.8-0.444,1.074c-0.274,0.274-0.654,0.444-1.072,0.446c-0.836,0-1.516-0.68-1.516-1.516V13.627
		C28.758,12.864,28.45,12.173,27.95,11.674z"/>
	<path fill="#FFFFFF" d="M13.589,18.998c-0.148-0.148-0.268-0.328-0.347-0.536c-1.891-5.017-0.678-10.699,3.096-14.472
		c5.319-5.319,13.977-5.319,19.296,0c3.773,3.773,4.987,9.455,3.094,14.47c-0.296,0.785-1.171,1.179-1.955,0.883
		c-0.785-0.292-1.179-1.171-0.881-1.953c1.473-3.904,0.532-8.323-2.401-11.256c-4.138-4.138-10.87-4.138-15.008,0
		c-2.933,2.933-3.874,7.352-2.401,11.256c0.294,0.783-0.101,1.657-0.883,1.955C14.623,19.559,13.997,19.405,13.589,18.998z"/>
</g>
</svg>
